<svg xmlns="http://www.w3.org/2000/svg" viewBox="0 0 32 32"><defs><style>path{fill:#005BAB;}@media (prefers-color-scheme: dark){path{fill:#FFF;}}</style></defs><path d="M31.21,10.92c-.47-1.32-1.21-2.53-2.19-3.54-.93-.95-2.07-1.67-3.32-2.13-1.33-.48-2.73-.72-4.14-.71H11.64v15.27h5.06V8.8h3.61c1.07-.03,2.14,.15,3.14,.53,.8,.32,1.51,.85,2.05,1.53,.54,.71,.91,1.53,1.11,2.4,.23,1.03,.35,2.08,.34,3.14,.03,1.09-.14,2.18-.48,3.22-.27,.8-.71,1.53-1.29,2.14-.51,.53-1.14,.93-1.84,1.17-.68,.23-1.4,.35-2.13,.35h-1.73v4.25h2.09c1.57,.04,3.14-.27,4.59-.88,1.25-.56,2.36-1.39,3.25-2.43,.9-1.08,1.56-2.33,1.95-3.67,.44-1.51,.66-3.07,.64-4.64,.03-1.7-.23-3.39-.79-4.99h0Z"/><path d="M4.97,23.13V4.45H0V22.63c.02,1.18,.38,2.33,1.03,3.31,.62,.83,1.56,1.35,2.59,1.43h13.13v-4.25H4.97Z"/></svg>